<svg width="19" height="22" viewBox="0 0 19 22" fill="none" xmlns="http://www.w3.org/2000/svg">
<path d="M18.0935 19.9427H2.80105C2.30611 19.9427 1.81298 19.5475 1.81298 18.9547C1.81298 18.4017 2.25716 17.9575 2.80105 17.9575H18.0935C18.6048 17.9575 19 17.5297 19 17.0511L18.9909 2.24809C18.9909 1.65186 18.7541 1.08005 18.3325 0.658451C17.9109 0.236852 17.3391 0 16.7428 0H2.80105C1.30081 0 0 1.22829 0 2.80105V18.9547C0 20.5501 1.30081 21.7557 2.80105 21.7557H18.0935C18.5921 21.7557 19 21.3478 19 20.8492C19 20.3507 18.5921 19.9427 18.0935 19.9427ZM1.81298 2.80105C1.81298 2.26622 2.26622 1.81298 2.80105 1.81298H3.63502V16.1446C3.06484 16.1808 2.58531 16.0476 1.81298 16.3259V2.80105ZM8.34876 7.31536C8.34876 6.83492 8.61164 6.39074 9.02863 6.16412C9.44561 5.92844 9.96231 5.94657 10.3702 6.20945L12.9628 7.87739C13.3435 8.11307 13.5701 8.53006 13.5701 8.9833C13.5701 9.42748 13.3435 9.84447 12.9628 10.0802L10.3702 11.7481C10.1717 11.8764 9.94199 11.9484 9.7057 11.9564C9.46941 11.9644 9.23539 11.9081 9.02863 11.7934C8.61164 11.5668 8.34876 11.1226 8.34876 10.6422V7.31536Z" fill="#114C63"/>
</svg>
