<svg width="22" height="16" viewBox="0 0 22 16" fill="none" xmlns="http://www.w3.org/2000/svg">
<path d="M20.7418 1.73794H19.2704V0.302265C19.2704 0.262565 19.2626 0.223249 19.2474 0.186566C19.2322 0.149884 19.21 0.116553 19.1819 0.0884807C19.1538 0.0604083 19.1205 0.0381444 19.0838 0.0229622C19.0471 0.00778001 19.0078 -2.2656e-05 18.9681 4.94113e-08C14.496 4.94113e-08 11.464 1.36088 10.7769 1.70063C10.0898 1.36088 7.05769 4.94113e-08 2.58572 4.94113e-08C2.54602 -2.2656e-05 2.5067 0.00778001 2.47002 0.0229622C2.43334 0.0381444 2.40001 0.0604083 2.37194 0.0884807C2.34386 0.116553 2.3216 0.149884 2.30642 0.186566C2.29124 0.223249 2.28343 0.262565 2.28346 0.302265V1.73794H0.81203C0.731865 1.73794 0.654983 1.76978 0.598297 1.82647C0.541611 1.88315 0.509766 1.96004 0.509766 2.0402V15.6977C0.509743 15.7374 0.517546 15.7768 0.532728 15.8134C0.54791 15.8501 0.570174 15.8834 0.598246 15.9115C0.626319 15.9396 0.659649 15.9619 0.696332 15.977C0.733015 15.9922 0.77233 16 0.81203 16H20.7418C20.7815 16 20.8208 15.9922 20.8575 15.977C20.8942 15.9619 20.9275 15.9396 20.9556 15.9115C20.9837 15.8834 21.0059 15.8501 21.0211 15.8134C21.0363 15.7768 21.0441 15.7374 21.0441 15.6977V2.04106C21.0442 2.0013 21.0365 1.9619 21.0213 1.92513C21.0062 1.88836 20.9839 1.85493 20.9559 1.82677C20.9278 1.79861 20.8944 1.77627 20.8577 1.76103C20.821 1.74578 20.7816 1.73794 20.7418 1.73794ZM18.6659 13.6596C14.8314 13.7123 12.1055 14.754 11.0792 15.2162V2.22743C11.7589 1.90047 14.5881 0.666192 18.6659 0.60712V13.6596ZM2.88799 0.607466C6.95716 0.66671 9.79344 1.90116 10.4747 2.22795V15.2167C9.44834 14.7545 6.72157 13.7128 2.88799 13.6601V0.607466ZM1.1143 2.34247H2.28346V13.9598C2.28346 14.04 2.3153 14.1168 2.37199 14.1735C2.42867 14.2302 2.50555 14.2621 2.58572 14.2621C4.86797 14.2539 7.13471 14.6373 9.28736 15.3955H1.1143V2.34247ZM20.4396 15.3955H12.2644C14.4176 14.6366 16.6851 14.2532 18.9681 14.2621C19.0483 14.2621 19.1252 14.2302 19.1819 14.1735C19.2385 14.1168 19.2704 14.04 19.2704 13.9598V2.34247H20.4396V15.3955Z" fill="#114C63"/>
<path d="M12.517 4.30399C12.5497 4.30394 12.5823 4.29858 12.6133 4.2881C14.1167 3.79071 15.6744 3.47543 17.2528 3.34901C17.2924 3.34575 17.331 3.33474 17.3663 3.31659C17.4016 3.29844 17.433 3.27351 17.4587 3.24323C17.4843 3.21295 17.5038 3.17791 17.5159 3.1401C17.5281 3.1023 17.5326 3.06248 17.5294 3.02291C17.5261 2.98334 17.5151 2.9448 17.497 2.90949C17.4788 2.87418 17.4539 2.84278 17.4236 2.81711C17.3933 2.79143 17.3583 2.77197 17.3205 2.75983C17.2827 2.74769 17.2428 2.74312 17.2033 2.74638C15.5761 2.87691 13.9705 3.20217 12.4208 3.71518C12.3528 3.73801 12.2951 3.78426 12.2581 3.84568C12.2211 3.90711 12.2071 3.97969 12.2187 4.05047C12.2302 4.12125 12.2666 4.18561 12.3212 4.23205C12.3759 4.27849 12.4452 4.30399 12.517 4.30399ZM12.517 6.38168C12.5497 6.38163 12.5823 6.37626 12.6133 6.36578C14.1167 5.8683 15.6744 5.55301 17.2528 5.42669C17.2927 5.42385 17.3316 5.41313 17.3673 5.39515C17.403 5.37717 17.4348 5.35229 17.4608 5.32194C17.4869 5.2916 17.5066 5.25639 17.5189 5.21836C17.5313 5.18034 17.5359 5.14024 17.5326 5.1004C17.5294 5.06056 17.5182 5.02177 17.4998 4.98627C17.4815 4.95076 17.4562 4.91926 17.4256 4.89357C17.395 4.86789 17.3595 4.84854 17.3214 4.83663C17.2832 4.82473 17.2431 4.82052 17.2033 4.82423C15.5761 4.95473 13.9705 5.27993 12.4208 5.79286C12.3528 5.81569 12.2951 5.86194 12.2581 5.92337C12.2211 5.98479 12.2071 6.05737 12.2187 6.12815C12.2302 6.19893 12.2666 6.26329 12.3212 6.30973C12.3759 6.35618 12.4452 6.38168 12.517 6.38168ZM17.2033 11.0552C15.576 11.186 13.9703 11.5115 12.4206 12.0247C12.3446 12.0503 12.2819 12.105 12.2463 12.1768C12.2107 12.2486 12.205 12.3317 12.2306 12.4076C12.2562 12.4836 12.3109 12.5463 12.3827 12.5819C12.4545 12.6176 12.5375 12.6232 12.6135 12.5976C14.1168 12.1001 15.6744 11.7848 17.2528 11.6584C17.2927 11.6555 17.3316 11.6448 17.3673 11.6268C17.403 11.6088 17.4348 11.584 17.4608 11.5536C17.4869 11.5233 17.5066 11.4881 17.5189 11.45C17.5313 11.412 17.5359 11.3719 17.5326 11.3321C17.5294 11.2922 17.5182 11.2534 17.4998 11.2179C17.4815 11.1824 17.4562 11.1509 17.4256 11.1252C17.395 11.0996 17.3595 11.0802 17.3214 11.0683C17.2832 11.0564 17.2431 11.0522 17.2033 11.0559V11.0552ZM12.517 10.5358C12.5498 10.5358 12.5824 10.5304 12.6135 10.5199C14.1168 10.0223 15.6744 9.707 17.2528 9.58067C17.2927 9.57783 17.3316 9.56711 17.3673 9.54913C17.403 9.53115 17.4348 9.50627 17.4608 9.47593C17.4869 9.44558 17.5066 9.41037 17.5189 9.37235C17.5313 9.33432 17.5359 9.29422 17.5326 9.25438C17.5294 9.21454 17.5182 9.17575 17.4998 9.14025C17.4815 9.10475 17.4562 9.07324 17.4256 9.04756C17.395 9.02187 17.3595 9.00252 17.3214 8.99062C17.2832 8.97871 17.2431 8.9745 17.2033 8.97822C15.576 9.10859 13.9703 9.43385 12.4206 9.94702C12.3526 9.96985 12.2949 10.0161 12.2579 10.0776C12.2209 10.139 12.2069 10.2116 12.2185 10.2824C12.2301 10.3532 12.2665 10.4175 12.3211 10.464C12.3758 10.5104 12.4452 10.5359 12.517 10.5358ZM12.517 8.45867C12.5498 8.45866 12.5824 8.45336 12.6135 8.44295C14.1168 7.94524 15.6744 7.62989 17.2528 7.50368C17.3328 7.49711 17.4068 7.45906 17.4587 7.3979C17.5105 7.33675 17.536 7.25749 17.5294 7.17758C17.5228 7.09767 17.4848 7.02364 17.4236 6.97178C17.3624 6.91992 17.2832 6.89448 17.2033 6.90105C15.576 7.03157 13.9703 7.35683 12.4206 7.86985C12.3526 7.89268 12.2949 7.93895 12.2579 8.00039C12.2209 8.06183 12.2069 8.13444 12.2185 8.20523C12.2301 8.27602 12.2665 8.34038 12.3211 8.38681C12.3758 8.43324 12.4452 8.45871 12.517 8.45867ZM4.30106 3.34953C5.87955 3.47595 7.43717 3.79123 8.94057 4.28862C9.01623 4.31299 9.09844 4.30658 9.16941 4.27077C9.24037 4.23496 9.29437 4.17264 9.31972 4.0973C9.34507 4.02196 9.33972 3.93967 9.30483 3.86825C9.26995 3.79683 9.20833 3.74202 9.13333 3.7157C7.58349 3.20275 5.97774 2.87749 4.35046 2.7469C4.27055 2.74035 4.1913 2.76581 4.13016 2.81768C4.06902 2.86956 4.031 2.9436 4.02445 3.02351C4.0179 3.10343 4.04336 3.18267 4.09523 3.24381C4.14711 3.30495 4.22115 3.34298 4.30106 3.34953ZM4.30106 5.42669C5.87957 5.55303 7.43721 5.86838 8.94057 6.36596C9.01623 6.39033 9.09844 6.38391 9.16941 6.3481C9.24037 6.31229 9.29437 6.24997 9.31972 6.17464C9.34507 6.0993 9.33972 6.01701 9.30483 5.94558C9.26995 5.87416 9.20833 5.81936 9.13333 5.79304C7.58351 5.28004 5.97775 4.95478 4.35046 4.82423C4.27116 4.81877 4.1929 4.84475 4.13263 4.89657C4.07235 4.94839 4.03491 5.02186 4.02841 5.10108C4.02192 5.1803 4.04689 5.25889 4.09792 5.31984C4.14895 5.38078 4.22193 5.41917 4.30106 5.42669ZM4.30106 11.6577C5.87956 11.7841 7.43718 12.0995 8.94057 12.5969C9.01525 12.6181 9.09524 12.6098 9.16393 12.5736C9.23263 12.5374 9.28478 12.4762 9.30956 12.4026C9.33435 12.3291 9.32987 12.2488 9.29706 12.1784C9.26425 12.1081 9.20562 12.053 9.13333 12.0247C7.58356 11.5117 5.97786 11.1865 4.35063 11.0559C4.31083 11.0522 4.27069 11.0564 4.23253 11.0683C4.19437 11.0802 4.15895 11.0996 4.12831 11.1252C4.09768 11.1509 4.07245 11.1824 4.05408 11.2179C4.03571 11.2534 4.02456 11.2922 4.02128 11.3321C4.018 11.3719 4.02266 11.412 4.03498 11.45C4.0473 11.4881 4.06705 11.5233 4.09307 11.5536C4.11909 11.584 4.15087 11.6088 4.18657 11.6268C4.22227 11.6448 4.26119 11.6555 4.30106 11.6584V11.6577ZM4.30106 9.58067C5.87957 9.70705 7.4372 10.0224 8.94057 10.5199C9.01623 10.5443 9.09844 10.5379 9.16941 10.5021C9.24037 10.4663 9.29437 10.404 9.31972 10.3286C9.34507 10.2533 9.33972 10.171 9.30483 10.0996C9.26995 10.0281 9.20833 9.97334 9.13333 9.94702C7.5836 9.43387 5.97789 9.10861 4.35063 8.97822C4.31083 8.9745 4.27069 8.97871 4.23253 8.99062C4.19437 9.00252 4.15895 9.02187 4.12831 9.04756C4.09768 9.07324 4.07245 9.10475 4.05408 9.14025C4.03571 9.17575 4.02456 9.21454 4.02128 9.25438C4.018 9.29422 4.02266 9.33432 4.03498 9.37235C4.0473 9.41037 4.06705 9.44558 4.09307 9.47593C4.11909 9.50627 4.15087 9.53115 4.18657 9.54913C4.22227 9.56711 4.26119 9.57783 4.30106 9.58067ZM4.30106 7.50368C5.87958 7.62994 7.43724 7.94528 8.94057 8.44295C9.01656 8.46851 9.0996 8.46283 9.17142 8.42717C9.24323 8.39151 9.29793 8.32878 9.32349 8.25278C9.34906 8.17678 9.34338 8.09374 9.30772 8.02193C9.27205 7.95012 9.20932 7.89542 9.13333 7.86985C7.58351 7.35685 5.97775 7.0316 4.35046 6.90105C4.27055 6.8945 4.1913 6.91996 4.13016 6.97184C4.06902 7.02372 4.031 7.09775 4.02445 7.17767C4.0179 7.25758 4.04336 7.33682 4.09523 7.39796C4.14711 7.4591 4.22115 7.49713 4.30106 7.50368Z" fill="#114C63"/>
</svg>
