<svg width="19" height="10" viewBox="0 0 19 10" fill="none" xmlns="http://www.w3.org/2000/svg">
<path d="M18.236 0.225563C17.9352 -0.0751878 17.4491 -0.0751878 17.1483 0.225563L9.23076 8.1431L1.31322 0.225563C1.01247 -0.0751878 0.526315 -0.0751878 0.225563 0.225563C-0.0751878 0.526315 -0.0751878 1.01247 0.225563 1.31322L8.68695 9.77461C8.75829 9.84614 8.84306 9.90287 8.93639 9.94155C9.02972 9.98023 9.12977 10.0001 9.2308 10C9.33182 10.0001 9.43187 9.98023 9.5252 9.94155C9.61853 9.90287 9.7033 9.84614 9.77464 9.77461L18.236 1.31322C18.5367 1.01247 18.5367 0.526315 18.236 0.225563Z" fill="#114C63"/>
</svg>
