<svg width="18" height="18" viewBox="0 0 18 18" fill="none" xmlns="http://www.w3.org/2000/svg">
<path d="M9 0C4.0371 0 0 4.03748 0 9C0 13.9625 4.0371 18 9 18C13.9629 18 18 13.9625 18 9C18 4.03748 13.9629 0 9 0ZM9 17.25C4.45092 17.25 0.749988 13.5491 0.749988 9C0.749988 4.45092 4.45092 0.749988 9 0.749988C13.5491 0.749988 17.25 4.45092 17.25 9C17.25 13.5491 13.5491 17.25 9 17.25Z" fill="#114C63"/>
<path d="M12.5779 8.68477L7.3279 5.30977C7.2129 5.23471 7.06423 5.23066 6.94557 5.29584C6.88637 5.32805 6.83695 5.37563 6.80253 5.43358C6.7681 5.49152 6.74996 5.55768 6.75 5.62508V12.3751C6.75 12.5124 6.82471 12.6384 6.94557 12.7043C7.00063 12.7343 7.06232 12.7501 7.12501 12.7501C7.19532 12.7501 7.26638 12.7303 7.3279 12.6904L12.5779 9.3154C12.6848 9.24656 12.75 9.12752 12.75 9.00008C12.75 8.87264 12.6848 8.75364 12.5779 8.68477ZM7.49999 11.6881V6.31211L11.6814 9.00008L7.49999 11.6881Z" fill="#114C63"/>
</svg>
