<svg width="10" height="8" viewBox="0 0 10 8" fill="none" xmlns="http://www.w3.org/2000/svg">
<path d="M3.33325 7.95837H3.28909C3.19966 7.95169 3.11269 7.92592 3.03406 7.8828C2.95543 7.83967 2.88696 7.78019 2.83325 7.70837L0.333255 4.37504C0.233798 4.24243 0.191094 4.07574 0.214536 3.91165C0.237978 3.74755 0.325646 3.59949 0.458255 3.50004C0.590863 3.40058 0.757549 3.35788 0.921643 3.38132C1.08574 3.40476 1.2338 3.49243 1.33325 3.62504L3.40159 6.3817L8.72492 1.05837C8.8434 0.947969 9.0001 0.887866 9.16202 0.890722C9.32394 0.893579 9.47843 0.959173 9.59294 1.07368C9.70745 1.18819 9.77304 1.34268 9.7759 1.5046C9.77876 1.66652 9.71865 1.82322 9.60825 1.9417L3.77492 7.77504C3.71705 7.83324 3.64823 7.8794 3.57242 7.91087C3.49662 7.94234 3.41533 7.95848 3.33325 7.95837Z" fill="#F4F4F4"/>
</svg>
