<svg width="14" height="12" viewBox="0 0 14 12" fill="none" xmlns="http://www.w3.org/2000/svg">
<path d="M13.2222 10.6665H12.25V9.69427C12.25 9.6427 12.2295 9.59324 12.193 9.55678C12.1566 9.52031 12.1071 9.49983 12.0555 9.49983H7.77776C7.62677 9.49985 7.47786 9.53506 7.34285 9.60267C7.20784 9.67027 7.09045 9.76841 6.99998 9.8893C6.90951 9.76841 6.79212 9.67027 6.65711 9.60267C6.5221 9.53506 6.37319 9.49985 6.2222 9.49983H1.94442C1.89285 9.49983 1.8434 9.52031 1.80693 9.55678C1.77047 9.59324 1.74998 9.6427 1.74998 9.69427V10.6665H0.777757C0.726188 10.6665 0.67673 10.687 0.640264 10.7234C0.603799 10.7599 0.583313 10.8094 0.583313 10.8609C0.583313 10.9125 0.603799 10.962 0.640264 10.9984C0.67673 11.0349 0.726188 11.0554 0.777757 11.0554H6.2222C6.37686 11.0555 6.52515 11.117 6.63451 11.2264C6.74387 11.3358 6.80538 11.4841 6.80553 11.6387C6.80553 11.6903 6.82602 11.7397 6.86249 11.7762C6.89895 11.8127 6.94841 11.8332 6.99998 11.8332C7.05155 11.8332 7.10101 11.8127 7.13747 11.7762C7.17394 11.7397 7.19442 11.6903 7.19442 11.6387C7.19458 11.4841 7.25609 11.3358 7.36545 11.2264C7.47481 11.117 7.62309 11.0555 7.77776 11.0554H13.2222C13.2738 11.0554 13.3232 11.0349 13.3597 10.9984C13.3962 10.962 13.4166 10.9125 13.4166 10.8609C13.4166 10.8094 13.3962 10.7599 13.3597 10.7234C13.3232 10.687 13.2738 10.6665 13.2222 10.6665ZM7.77776 10.6665C7.62677 10.6665 7.47786 10.7017 7.34285 10.7693C7.20784 10.8369 7.09045 10.9351 6.99998 11.056C6.90951 10.9351 6.79212 10.8369 6.65711 10.7693C6.5221 10.7017 6.37319 10.6665 6.2222 10.6665H2.13887V9.88872H6.2222C6.37686 9.88887 6.52515 9.95038 6.63451 10.0597C6.74387 10.1691 6.80538 10.3174 6.80553 10.472C6.80553 10.5236 6.82602 10.5731 6.86249 10.6095C6.89895 10.646 6.94841 10.6665 6.99998 10.6665C7.05155 10.6665 7.10101 10.646 7.13747 10.6095C7.17394 10.5731 7.19442 10.5236 7.19442 10.472C7.19458 10.3174 7.25609 10.1691 7.36545 10.0597C7.47481 9.95038 7.62309 9.88887 7.77776 9.88872H11.8611V10.6665H7.77776ZM5.61845 5.67238C5.70294 5.72494 5.79952 5.75488 5.89891 5.75934C5.99831 5.7638 6.09718 5.74263 6.18603 5.69785L8.81648 4.38283C8.91345 4.33441 8.99501 4.25993 9.05201 4.16775C9.10902 4.07556 9.13922 3.96932 9.13922 3.86094C9.13922 3.75255 9.10902 3.64631 9.05201 3.55413C8.99501 3.46195 8.91345 3.38747 8.81648 3.33905L6.18603 2.02402C6.0971 1.97954 5.99827 1.95853 5.89893 1.96299C5.7996 1.96745 5.70305 1.99723 5.61846 2.0495C5.53386 2.10177 5.46404 2.17479 5.41561 2.26164C5.36718 2.34849 5.34176 2.44628 5.34176 2.54572V5.17616C5.34141 5.27567 5.36668 5.37359 5.41514 5.4605C5.4636 5.54741 5.53362 5.62038 5.61845 5.67238ZM5.73065 2.54572C5.73036 2.51254 5.73871 2.47986 5.75487 2.45088C5.77102 2.42191 5.79444 2.39763 5.82281 2.38044C5.85366 2.36129 5.88918 2.351 5.92548 2.35069C5.95559 2.35083 5.98524 2.35809 6.01201 2.37188L8.64245 3.68691C8.67481 3.70304 8.70203 3.72787 8.72106 3.75861C8.74008 3.78935 8.75016 3.82479 8.75016 3.86094C8.75016 3.89709 8.74008 3.93253 8.72106 3.96327C8.70203 3.99401 8.67481 4.01884 8.64245 4.03497L6.0122 5.34999C5.98256 5.3648 5.94963 5.3718 5.91654 5.3703C5.88344 5.36881 5.85127 5.35889 5.82308 5.34148C5.7949 5.32406 5.77163 5.29973 5.75549 5.2708C5.73934 5.24187 5.73086 5.20929 5.73084 5.17616L5.73065 2.54572Z" fill="black"/>
<path d="M3.5 7.55539H6.36592C6.40549 7.55553 6.44408 7.56769 6.47659 7.59026C6.50909 7.61284 6.53396 7.64475 6.54792 7.68178L6.81781 8.40162C6.83169 8.4387 6.85657 8.47066 6.88911 8.49322C6.92165 8.51579 6.9603 8.52787 6.9999 8.52787C7.0395 8.52787 7.07816 8.51579 7.1107 8.49322C7.14324 8.47066 7.16811 8.4387 7.182 8.40162L7.45228 7.68139C7.46627 7.6445 7.49111 7.61271 7.52353 7.59021C7.55595 7.56772 7.59443 7.55558 7.63389 7.55539H10.5C10.964 7.55488 11.4088 7.37034 11.7369 7.04226C12.0649 6.71418 12.2495 6.26936 12.25 5.80539V1.9165C12.2495 1.45253 12.0649 1.00771 11.7369 0.679636C11.4088 0.351558 10.964 0.167019 10.5 0.166504H3.5C3.03603 0.167019 2.59121 0.351558 2.26313 0.679636C1.93505 1.00771 1.75051 1.45253 1.75 1.9165V5.80539C1.75051 6.26936 1.93505 6.71418 2.26313 7.04226C2.59121 7.37034 3.03603 7.55488 3.5 7.55539ZM2.13889 1.9165C2.1393 1.55564 2.28284 1.20968 2.538 0.954508C2.79317 0.699339 3.13914 0.555805 3.5 0.555393H10.5C10.8609 0.555805 11.2068 0.699339 11.462 0.954508C11.7172 1.20968 11.8607 1.55564 11.8611 1.9165V5.80539C11.8607 6.16626 11.7172 6.51222 11.462 6.76739C11.2068 7.02256 10.8609 7.16609 10.5 7.1665H7.63389C7.51527 7.16686 7.39955 7.20323 7.30205 7.2708C7.20455 7.33837 7.12987 7.43395 7.08789 7.54489L7 7.77939L6.91211 7.54489C6.87004 7.43393 6.79528 7.33835 6.69772 7.27079C6.60016 7.20323 6.48439 7.16686 6.36572 7.1665H3.5C3.13914 7.16609 2.79317 7.02256 2.538 6.76739C2.28284 6.51222 2.1393 6.16626 2.13889 5.80539V1.9165Z" fill="black"/>
</svg>
