<svg width="27" height="21" viewBox="0 0 27 21" fill="none" xmlns="http://www.w3.org/2000/svg">
<path d="M15.7565 13.5427C15.0847 13.9905 14.3045 14.2272 13.5 14.2272C12.6956 14.2272 11.9153 13.9905 11.2436 13.5427L0.179771 6.16657C0.118695 6.12574 0.0587484 6.08324 0 6.03912L0 18.1257C0 19.5114 1.12456 20.6112 2.48553 20.6112H24.5144C25.9002 20.6112 26.9999 19.4866 26.9999 18.1257V6.03906C26.9411 6.0833 26.881 6.12589 26.8198 6.16679L15.7565 13.5427Z" fill="#D9D9D9"/>
<path d="M1.05733 4.85007L12.1212 12.2262C12.54 12.5055 13.02 12.6451 13.4999 12.6451C13.98 12.6451 14.46 12.5054 14.8788 12.2262L25.9427 4.85007C26.6048 4.40894 27 3.67066 27 2.87385C27 1.50375 25.8854 0.38916 24.5153 0.38916H2.48469C1.11465 0.389213 1.30787e-06 1.50381 1.30787e-06 2.87516C-0.000409419 3.26603 0.0959254 3.65093 0.280414 3.99552C0.464902 4.34012 0.731808 4.63369 1.05733 4.85007Z" fill="#D9D9D9"/>
</svg>
