<svg width="27" height="16" viewBox="0 0 27 16" fill="none" xmlns="http://www.w3.org/2000/svg">
<path d="M7.73254 14.3615C7.73254 14.5407 7.87334 14.6815 8.05254 14.6815H9.97254C10.1517 14.6815 10.2925 14.5407 10.2925 14.3615C10.2925 14.1823 10.1517 14.0415 9.97254 14.0415H8.05254C7.87334 14.0415 7.73254 14.1823 7.73254 14.3615Z" fill="#114C63"/>
<path d="M23.1053 9.2032C23.6789 8.90737 24.1601 8.45961 24.4965 7.90881C24.8328 7.35801 25.0113 6.72537 25.0125 6.08C25.0125 4.1408 23.4317 2.56 21.4925 2.56C19.5533 2.56 17.9725 4.1408 17.9725 6.08C17.9728 6.72555 18.151 7.35854 18.4874 7.90949C18.8238 8.46044 19.3056 8.90806 19.8797 9.2032C19.4957 9.3248 19.1373 9.4848 18.7917 9.6832C18.4792 8.96461 18.0157 8.32173 17.4326 7.79827C16.8495 7.27481 16.1605 6.88304 15.4125 6.6496C16.5517 6.0672 17.3325 4.8832 17.3325 3.52C17.3325 1.5808 15.7517 0 13.8125 0C11.8733 0 10.2925 1.5808 10.2925 3.52C10.2925 4.8832 11.0733 6.0672 12.2125 6.6496C11.4708 6.88303 10.7872 7.27132 10.2069 7.78878C9.62653 8.30623 9.1627 8.94104 8.8461 9.6512C8.5005 9.4528 8.1357 9.2864 7.7453 9.1648C8.31889 8.86897 8.80013 8.42121 9.13648 7.87041C9.47283 7.31961 9.65134 6.68697 9.6525 6.0416C9.6525 4.1024 8.0717 2.5216 6.1325 2.5216C4.1933 2.5216 2.6125 4.1024 2.6125 6.0416C2.61281 6.68715 2.79096 7.32014 3.12741 7.87109C3.46385 8.42204 3.94557 8.86966 4.5197 9.1648C2.3053 9.856 0.692505 11.9232 0.692505 14.3616V15.6416C0.692505 15.8208 0.833305 15.9616 1.0125 15.9616H11.2525C11.4317 15.9616 11.5725 15.8208 11.5725 15.6416V14.3616C11.5725 14.048 11.5405 13.7408 11.4893 13.44H16.1421C16.0845 13.7536 16.0525 14.0736 16.0525 14.4V15.68C16.0525 15.8592 16.1933 16 16.3725 16H26.6125C26.7917 16 26.9325 15.8592 26.9325 15.68V14.4C26.9325 11.9616 25.3197 9.8944 23.1053 9.2032ZM18.6125 6.08C18.6125 4.4928 19.9053 3.2 21.4925 3.2C23.0797 3.2 24.3725 4.4928 24.3725 6.08C24.3725 7.6672 23.0797 8.96 21.4925 8.96C19.9053 8.96 18.6125 7.6672 18.6125 6.08ZM21.8125 9.6192V13.0496L21.4925 13.6896L21.1725 13.0496V9.6192C21.2813 9.6128 21.3837 9.6 21.4925 9.6C21.6013 9.6 21.7037 9.6064 21.8125 9.6192ZM10.9325 3.52C10.9325 1.9328 12.2253 0.64 13.8125 0.64C15.3997 0.64 16.6925 1.9328 16.6925 3.52C16.6925 5.1072 15.3997 6.4 13.8189 6.4H13.8125C12.2253 6.4 10.9325 5.1072 10.9325 3.52ZM14.1325 7.0592V10.4832L13.8125 11.1232L13.4925 10.4832V7.0592C13.7037 7.0464 13.9213 7.0464 14.1325 7.0592ZM3.2525 6.0416C3.2525 4.4544 4.5453 3.1616 6.1325 3.1616C7.7197 3.1616 9.0125 4.4544 9.0125 6.0416C9.0125 7.6288 7.7197 8.9216 6.1325 8.9216C4.5453 8.9216 3.2525 7.6288 3.2525 6.0416ZM6.4525 9.5808V13.0112L6.1325 13.6512L5.8125 13.0112V9.5808C5.9213 9.5744 6.0237 9.5616 6.1325 9.5616C6.2413 9.5616 6.3437 9.568 6.4525 9.5808ZM10.9325 15.3216H1.3325V14.3616C1.3325 12.0448 2.9837 10.1056 5.1725 9.6576V13.0816C5.1725 13.1328 5.1853 13.1776 5.2045 13.2224L5.8445 14.5024C5.87071 14.5565 5.91162 14.6021 5.96256 14.6341C6.01349 14.666 6.07239 14.6829 6.1325 14.6829C6.19262 14.6829 6.25152 14.666 6.30245 14.6341C6.35339 14.6021 6.3943 14.5565 6.4205 14.5024L7.0605 13.2224C7.0797 13.1776 7.0925 13.1264 7.0925 13.0816V9.6576C9.2813 10.1056 10.9325 12.0448 10.9325 14.3616V15.3216ZM16.2957 12.8H11.3421C11.005 11.6876 10.321 10.7121 9.3901 10.016C9.6901 9.29225 10.1623 8.65273 10.7658 8.15304C11.3692 7.65335 12.0855 7.30862 12.8525 7.1488V10.56C12.8525 10.6112 12.8653 10.656 12.8845 10.7008L13.5245 11.9808C13.5507 12.0349 13.5916 12.0805 13.6426 12.1125C13.6935 12.1444 13.7524 12.1613 13.8125 12.1613C13.8726 12.1613 13.9315 12.1444 13.9825 12.1125C14.0334 12.0805 14.0743 12.0349 14.1005 11.9808L14.7405 10.7008C14.7597 10.656 14.7725 10.6048 14.7725 10.56V7.1488C15.5448 7.30839 16.2659 7.65582 16.8721 8.16036C17.4782 8.66491 17.9507 9.31103 18.2477 10.0416C17.3206 10.7304 16.6369 11.6965 16.2957 12.8ZM26.2925 15.36H16.6925V14.4C16.6925 12.0832 18.3437 10.144 20.5325 9.696V13.12C20.5325 13.1712 20.5453 13.216 20.5645 13.2608L21.2045 14.5408C21.2307 14.5949 21.2716 14.6405 21.3226 14.6725C21.3735 14.7044 21.4324 14.7213 21.4925 14.7213C21.5526 14.7213 21.6115 14.7044 21.6625 14.6725C21.7134 14.6405 21.7543 14.5949 21.7805 14.5408L22.4205 13.2608C22.4397 13.216 22.4525 13.1648 22.4525 13.12V9.696C24.6413 10.144 26.2925 12.0832 26.2925 14.4V15.36Z" fill="#114C63"/>
<path d="M23.0925 14.4001C23.0925 14.5793 23.2333 14.7201 23.4125 14.7201H25.3325C25.5117 14.7201 25.6525 14.5793 25.6525 14.4001C25.6525 14.2209 25.5117 14.0801 25.3325 14.0801H23.4125C23.2333 14.0801 23.0925 14.2209 23.0925 14.4001Z" fill="#114C63"/>
</svg>
