<svg width="38" height="35" viewBox="0 0 38 35" fill="none" xmlns="http://www.w3.org/2000/svg">
<path d="M12.4762 8.73333C9.72394 8.73333 7.48571 10.9716 7.48571 13.7238C7.48571 16.4761 9.72394 18.7143 12.4762 18.7143C15.2284 18.7143 17.4667 16.4761 17.4667 13.7238C17.4667 10.9716 15.2284 8.73333 12.4762 8.73333ZM10.6048 17.302V10.1456L15.9733 13.7238L10.6048 17.302ZM32.4381 0H4.99048C2.23823 0 0 2.23823 0 4.99048V22.4571C0 25.2094 2.23823 27.4476 4.99048 27.4476H32.4381C35.1903 27.4476 37.4286 25.2094 37.4286 22.4571V4.99048C37.4286 2.23823 35.1903 0 32.4381 0ZM12.4762 21.2095C8.34782 21.2095 4.99048 17.8522 4.99048 13.7238C4.99048 9.59544 8.34782 6.2381 12.4762 6.2381C16.6046 6.2381 19.9619 9.59544 19.9619 13.7238C19.9619 17.8522 16.6046 21.2095 12.4762 21.2095ZM32.4381 19.9619H22.4571V17.4667H32.4381V19.9619ZM32.4381 14.9714H22.4571V12.4762H32.4381V14.9714ZM32.4381 9.98095H22.4571V7.48571H32.4381V9.98095ZM22.4571 32.4381V29.9429H14.9714V32.4381H9.98095V34.9333H27.4476V32.4381H22.4571Z" fill="white"/>
</svg>
