<svg width="16" height="23" viewBox="0 0 16 23" fill="none" xmlns="http://www.w3.org/2000/svg">
<path d="M8 0C5.87827 0 3.84344 0.888385 2.34315 2.46972C0.842855 4.05105 0 6.1958 0 8.43215C0 12.8859 7.12727 22.3069 7.43273 22.7131C7.50087 22.8027 7.58723 22.8749 7.68541 22.9246C7.78359 22.9742 7.8911 23 8 23C8.1089 23 8.21641 22.9742 8.31459 22.9246C8.41277 22.8749 8.49913 22.8027 8.56727 22.7131C8.87273 22.3069 16 12.8859 16 8.43215C16 6.1958 15.1571 4.05105 13.6569 2.46972C12.1566 0.888385 10.1217 0 8 0ZM8 10.7318C7.42464 10.7318 6.86219 10.552 6.3838 10.2151C5.9054 9.87815 5.53253 9.39927 5.31235 8.83899C5.09217 8.2787 5.03456 7.66219 5.14681 7.0674C5.25905 6.4726 5.53612 5.92625 5.94296 5.49743C6.34981 5.06861 6.86816 4.77658 7.43246 4.65827C7.99677 4.53996 8.58169 4.60068 9.11326 4.83276C9.64483 5.06483 10.0992 5.45784 10.4188 5.96208C10.7385 6.46632 10.9091 7.05914 10.9091 7.66559C10.9091 8.4788 10.6026 9.25871 10.057 9.83374C9.51148 10.4088 8.77154 10.7318 8 10.7318Z" fill="#114C63"/>
</svg>
