<svg width="14" height="19" viewBox="0 0 14 19" fill="none" xmlns="http://www.w3.org/2000/svg">
<path d="M6.53125 0C2.92984 0 0 3.1485 0 7.01869C0 8.29279 0.531721 9.66308 0.554004 9.72088C0.725737 10.1589 1.06459 10.8393 1.30894 11.2382L5.78707 18.5297C5.97033 18.8287 6.24157 19 6.53125 19C6.82093 19 7.09217 18.8287 7.27543 18.5302L11.7539 11.2382C11.9987 10.8393 12.3371 10.1589 12.5089 9.72088C12.5312 9.66349 13.0625 8.2932 13.0625 7.01869C13.0625 3.1485 10.1327 0 6.53125 0ZM11.8004 9.4005C11.6471 9.79313 11.3317 10.4261 11.1123 10.7836L6.63383 18.0756C6.54547 18.2197 6.51742 18.2197 6.42906 18.0756L1.95054 10.7836C1.73117 10.4261 1.41574 9.79272 1.26245 9.40009C1.25592 9.38316 0.768382 8.12186 0.768382 7.01869C0.768382 3.60389 3.3536 0.825728 6.53125 0.825728C9.7089 0.825728 12.2941 3.60389 12.2941 7.01869C12.2941 8.12351 11.8054 9.38811 11.8004 9.4005Z" fill="#114C63"/>
<path d="M6.5 3C4.56994 3 3 4.57033 3 6.5C3 8.42967 4.56994 10 6.5 10C8.43006 10 10 8.42967 10 6.5C10 4.57033 8.43006 3 6.5 3ZM6.5 9.22222C4.99928 9.22222 3.77778 8.00111 3.77778 6.5C3.77778 4.99889 4.99928 3.77778 6.5 3.77778C8.00072 3.77778 9.22222 4.99889 9.22222 6.5C9.22222 8.00111 8.00072 9.22222 6.5 9.22222Z" fill="#114C63"/>
</svg>
