<svg width="11" height="12" viewBox="0 0 11 12" fill="none" xmlns="http://www.w3.org/2000/svg">
<path d="M6.92339 9C6.75769 9 6.62339 9.1343 6.62339 9.3V10.5C6.62283 10.9969 6.2202 11.3995 5.72341 11.4H1.52344C1.02656 11.3995 0.62393 10.9969 0.623391 10.5V1.5C0.623906 1.00324 1.02656 0.600586 1.52344 0.600047H5.72344C6.22027 0.600586 6.62292 1.00324 6.62339 1.5V2.7C6.62339 2.8657 6.75778 3 6.92339 3C7.08909 3 7.22341 2.8657 7.22341 2.7V1.5C7.22259 0.671906 6.55151 0.000820313 5.72341 0H1.52344C0.695438 0.00100781 0.0244453 0.672 0.0234375 1.5V10.5C0.0244453 11.328 0.695438 11.999 1.52344 12H5.72344C6.55151 11.9991 7.22259 11.328 7.22344 10.5V9.29993C7.22344 9.1343 7.08912 9 6.92339 9Z" fill="#F11414"/>
<path d="M10.7355 5.78805L8.93555 3.988C8.81634 3.87293 8.62645 3.87621 8.51138 3.99543C8.39904 4.11168 8.39904 4.296 8.51138 4.41227L9.79917 5.70016H3.32337C3.15773 5.70016 3.02344 5.83446 3.02344 6.00016C3.02344 6.16586 3.15773 6.30016 3.32337 6.30016H9.79915L8.51128 7.58805C8.39208 7.70313 8.3888 7.89311 8.50397 8.01222C8.61905 8.13143 8.80894 8.13471 8.92814 8.01963C8.9306 8.01717 8.93306 8.01478 8.93555 8.01222L10.7355 6.2122C10.8527 6.0952 10.8528 5.9054 10.7357 5.78821C10.7357 5.78812 10.7356 5.78812 10.7356 5.78803L10.7355 5.78805Z" fill="#F11414"/>
</svg>
