<svg width="24" height="24" viewBox="0 0 24 24" fill="none" xmlns="http://www.w3.org/2000/svg">
<path d="M23.7728 22.6943L17.5764 16.5969C19.199 14.834 20.196 12.5024 20.196 9.93682C20.1952 4.44852 15.6747 0 10.0979 0C4.52104 0 0.000488281 4.44852 0.000488281 9.93682C0.000488281 15.4251 4.52104 19.8736 10.0979 19.8736C12.5074 19.8736 14.7174 19.0402 16.4534 17.6546L22.6738 23.776C22.9769 24.0746 23.469 24.0746 23.7721 23.776C23.8442 23.7056 23.9015 23.6215 23.9406 23.5287C23.9797 23.4358 23.9999 23.3361 24 23.2353C24.0001 23.1345 23.98 23.0348 23.941 22.9419C23.902 22.849 23.8448 22.7648 23.7728 22.6943ZM10.0979 18.3448C5.37926 18.3448 1.55411 14.5804 1.55411 9.93682C1.55411 5.29321 5.37926 1.52884 10.0979 1.52884C14.8165 1.52884 18.6416 5.29321 18.6416 9.93682C18.6416 14.5804 14.8165 18.3448 10.0979 18.3448Z" fill="#9D9D9D"/>
</svg>
