<svg width="36" height="36" viewBox="0 0 36 36" fill="none" xmlns="http://www.w3.org/2000/svg">
<path fill-rule="evenodd" clip-rule="evenodd" d="M4.5 8.15625C4.72378 8.15625 4.93839 8.24514 5.09662 8.40338C5.25486 8.56161 5.34375 8.77622 5.34375 9V20.25C5.34375 20.4738 5.25486 20.6884 5.09662 20.8466C4.93839 21.0049 4.72378 21.0938 4.5 21.0938C4.27622 21.0938 4.06161 21.0049 3.90338 20.8466C3.74514 20.6884 3.65625 20.4738 3.65625 20.25V9C3.65625 8.77622 3.74514 8.56161 3.90338 8.40338C4.06161 8.24514 4.27622 8.15625 4.5 8.15625ZM18 25.596C16.0792 25.5961 14.1888 26.0753 12.5 26.9903C10.8112 27.9053 9.37737 29.2272 8.32837 30.8363C8.26809 30.9297 8.18994 31.0103 8.09841 31.0734C8.00688 31.1365 7.90378 31.1809 7.79504 31.204C7.68629 31.2272 7.57404 31.2286 7.46474 31.2082C7.35545 31.1878 7.25126 31.1461 7.15816 31.0853C7.06506 31.0245 6.98489 30.9459 6.92227 30.8541C6.85964 30.7622 6.81578 30.6589 6.79322 30.55C6.77066 30.4411 6.76984 30.3289 6.7908 30.2197C6.81176 30.1105 6.8541 30.0065 6.91537 29.9137C8.11762 28.0697 9.76095 26.5547 11.6965 25.506C13.632 24.4573 15.7986 23.9081 18 23.9081C20.2014 23.9081 22.368 24.4573 24.3035 25.506C26.239 26.5547 27.8824 28.0697 29.0846 29.9137C29.2055 30.1011 29.2473 30.3287 29.2009 30.5469C29.1545 30.765 29.0236 30.9558 28.8369 31.0777C28.6502 31.1996 28.4228 31.2427 28.2044 31.1974C27.9861 31.1522 27.7945 31.0223 27.6716 30.8363C26.6226 29.2272 25.1888 27.9053 23.5 26.9903C21.8112 26.0753 19.9208 25.5961 18 25.596Z" fill="#114C63"/>
<path fill-rule="evenodd" clip-rule="evenodd" d="M17.7334 3.699C17.9064 3.64135 18.0935 3.64135 18.2666 3.699L31.7666 8.199C31.935 8.25474 32.0816 8.36215 32.1854 8.50594C32.2893 8.64974 32.3452 8.82261 32.3452 9C32.3452 9.17738 32.2893 9.35026 32.1854 9.49405C32.0816 9.63785 31.935 9.74525 31.7666 9.801L18.2666 14.301C18.0935 14.3586 17.9064 14.3586 17.7334 14.301L4.23337 9.801C4.06497 9.74525 3.91843 9.63785 3.81456 9.49405C3.71069 9.35026 3.65479 9.17738 3.65479 9C3.65479 8.82261 3.71069 8.64974 3.81456 8.50594C3.91843 8.36215 4.06497 8.25474 4.23337 8.199L17.7334 3.699ZM7.16849 9L18 12.6112L28.8315 9L18 5.38875L7.16849 9Z" fill="#114C63"/>
<path fill-rule="evenodd" clip-rule="evenodd" d="M12.762 10.9372C12.8438 11.0121 12.9101 11.1022 12.957 11.2027C13.0039 11.3031 13.0306 11.4118 13.0355 11.5225C13.0405 11.6333 13.0235 11.7439 12.9856 11.8481C12.9478 11.9523 12.8897 12.048 12.8149 12.1297C11.8934 13.1359 11.2845 14.3884 11.0625 15.7346C10.8405 17.0808 11.0149 18.4626 11.5646 19.7113C12.1142 20.9601 13.0153 22.022 14.158 22.7675C15.3007 23.513 16.6356 23.91 18 23.91C19.3644 23.91 20.6993 23.513 21.842 22.7675C22.9847 22.022 23.8858 20.9601 24.4354 19.7113C24.9851 18.4626 25.1596 17.0808 24.9375 15.7346C24.7155 14.3884 24.1067 13.1359 23.1851 12.1297C23.1102 12.048 23.0522 11.9522 23.0143 11.848C22.9763 11.7438 22.9593 11.6332 22.9642 11.5224C22.9691 11.4116 22.9957 11.3028 23.0426 11.2024C23.0895 11.1019 23.1557 11.0116 23.2374 10.9367C23.3192 10.8618 23.4149 10.8037 23.5192 10.7658C23.6234 10.7279 23.734 10.7109 23.8448 10.7157C23.9556 10.7206 24.0643 10.7472 24.1648 10.7941C24.2653 10.841 24.3556 10.9072 24.4305 10.989C25.5729 12.2367 26.3277 13.7899 26.6027 15.4591C26.8778 17.1283 26.6613 18.8414 25.9797 20.3898C25.298 21.9381 24.1807 23.2546 22.7638 24.179C21.3469 25.1033 19.6917 25.5955 18 25.5955C16.3083 25.5955 14.6531 25.1033 13.2362 24.179C11.8193 23.2546 10.702 21.9381 10.0203 20.3898C9.33869 18.8414 9.12221 17.1283 9.39728 15.4591C9.67235 13.7899 10.4271 12.2367 11.5695 10.989C11.6444 10.9073 11.7346 10.8411 11.8351 10.7943C11.9356 10.7474 12.0443 10.7208 12.155 10.716C12.2658 10.7112 12.3764 10.7283 12.4805 10.7662C12.5847 10.8042 12.6803 10.8623 12.762 10.9372Z" fill="#114C63"/>
</svg>
