<svg width="17" height="20" viewBox="0 0 17 20" fill="none" xmlns="http://www.w3.org/2000/svg">
<path d="M2.29661 3.45978C2.48966 3.56843 3.78916 4.19623 4.41697 4.49854C4.41943 4.74221 4.42481 5.16359 4.43309 5.17075C4.50229 5.77415 4.62106 6.44451 4.65547 6.63381C4.59839 6.66546 4.30501 6.85731 4.30501 7.45403L4.30582 7.4639C4.30539 7.47955 4.30501 7.49533 4.30501 7.51154C4.43128 9.17013 5.0909 8.45532 5.22692 9.18181C5.45318 10.3897 6.52271 11.2637 7.18846 11.5654C7.57324 11.7397 7.96923 11.8286 8.38539 11.8371C8.80156 11.8286 9.19755 11.7397 9.58233 11.5654C10.2481 11.2637 11.3176 10.3897 11.5439 9.18181C11.6799 8.45528 12.3395 9.17013 12.4658 7.51154C12.4658 7.49529 12.4654 7.47955 12.465 7.4639L12.4658 7.45403C12.4658 6.85727 12.1724 6.66546 12.1153 6.63381C12.1498 6.44451 12.2685 5.77419 12.3377 5.17075C12.3459 5.16359 12.3514 4.74225 12.3538 4.49854C12.8035 4.28212 13.2527 4.06456 13.7013 3.84586V5.44917C13.5749 5.52384 13.4859 5.65563 13.4859 5.81278C13.4859 5.9519 13.5565 6.06977 13.6594 6.14768C13.6594 6.14768 13.4765 7.17613 13.4173 7.47861C13.3582 7.781 14.4607 7.72034 14.4111 7.47861C14.3615 7.23679 14.1691 6.14768 14.1691 6.14768C14.272 6.06977 14.3426 5.9519 14.3426 5.81278C14.3426 5.65559 14.254 5.52388 14.1276 5.44917V3.63637C14.2974 3.55217 14.4237 3.48815 14.4741 3.45978C14.6108 3.38291 14.6843 3.28457 14.6688 3.1824C14.6875 3.07587 14.6104 2.96136 14.4037 2.86013C12.9282 2.13791 9.16677 0.297132 8.79483 0.119724C8.63256 0.0423365 8.49899 0.00814827 8.38539 0C8.27179 0.00814827 8.13823 0.0423365 7.97595 0.119724C7.60402 0.297132 3.84254 2.13795 2.36714 2.86013C2.16033 2.96136 2.08333 3.07587 2.10204 3.1824C2.08643 3.28457 2.16003 3.38291 2.29661 3.45978ZM13.393 13.8342C12.6988 13.5839 11.4907 12.8624 11.2836 12.7511C11.2283 12.7187 11.1654 12.7017 11.1013 12.7017C11.0324 12.7017 10.9649 12.7213 10.9068 12.7582C10.8486 12.7952 10.8021 12.8479 10.7728 12.9103C10.2005 13.8684 9.13947 16.6544 8.39915 16.7061C8.39462 16.7058 8.38996 16.7049 8.38539 16.7043C8.38082 16.7049 8.37617 16.7058 8.37164 16.7061C7.63131 16.6544 6.57027 13.8684 5.99795 12.9103C5.96864 12.8479 5.92219 12.7952 5.86402 12.7582C5.80586 12.7213 5.73838 12.7017 5.66947 12.7017C5.60539 12.7017 5.54245 12.7187 5.48711 12.7511C5.28012 12.8624 4.0719 13.5839 3.37778 13.8342C1.04789 14.6743 0 15.531 0 16.1153V20H16.7708V16.1153C16.7707 15.531 15.7229 14.6743 13.393 13.8342Z" fill="#114C63"/>
</svg>
