<svg width="16" height="18" viewBox="0 0 16 18" fill="none" xmlns="http://www.w3.org/2000/svg">
<path d="M7.84766 0C5.25134 0 3.13906 2.11228 3.13906 4.70859C3.13906 7.30491 5.25134 9.41719 7.84766 9.41719C10.444 9.41719 12.5563 7.30491 12.5563 4.70859C12.5563 2.11228 10.444 0 7.84766 0ZM13.7061 12.4933C12.4169 11.1844 10.708 10.4635 8.89401 10.4635H6.8013C4.98734 10.4635 3.27837 11.1844 1.98926 12.4933C0.706463 13.7958 0 15.5151 0 17.3346C0 17.6235 0.234244 17.8578 0.523177 17.8578H15.1721C15.4611 17.8578 15.6953 17.6235 15.6953 17.3346C15.6953 15.5151 14.9888 13.7958 13.7061 12.4933Z" fill="black"/>
</svg>
