<svg width="12" height="12" viewBox="0 0 12 12" fill="none" xmlns="http://www.w3.org/2000/svg">
<path d="M9.83206 11.9998H2.16565C1.41565 11.9974 0.808618 11.3904 0.806274 10.6404V10.0404C0.806274 8.57322 1.42268 7.174 2.50784 6.18728C2.96018 5.77713 3.63284 5.72088 4.14612 6.05135C4.68284 6.39588 5.32268 6.57869 6.00002 6.57869C6.67737 6.57869 7.31721 6.39588 7.85393 6.05135C8.36721 5.72088 9.03987 5.77713 9.49221 6.18728C10.5774 7.174 11.1961 8.57322 11.1938 10.0404V10.6404C11.1914 11.3928 10.5821 11.9998 9.83206 11.9998ZM3.41487 6.30447C3.19456 6.30447 2.98362 6.3865 2.8219 6.53416C1.83518 7.43181 1.27268 8.70681 1.27268 10.0404V10.6404C1.27502 11.1326 1.67112 11.5287 2.16331 11.531H9.82971C10.3219 11.531 10.7203 11.1326 10.7203 10.6404V10.0404C10.7203 8.70681 10.1578 7.43416 9.17112 6.53416C8.87581 6.26697 8.43753 6.22947 8.10237 6.4451C7.49065 6.83885 6.76174 7.04744 5.99534 7.04744C5.22893 7.04744 4.50002 6.83885 3.88831 6.4451C3.75002 6.35369 3.58362 6.30447 3.41487 6.30447Z" fill="black"/>
<path d="M6 6.04688C4.33125 6.04453 2.97891 4.69219 2.97656 3.02344C2.97656 1.35703 4.33125 0 6 0C7.66875 0.00234375 9.02109 1.35469 9.02344 3.02344C9.02109 4.68984 7.66641 6.04688 6 6.04688ZM6 0.471094C4.58906 0.471094 3.44531 1.61484 3.44531 3.02578C3.44531 4.43672 4.58906 5.58047 6 5.58047C7.41094 5.58047 8.55469 4.43672 8.55469 3.02578C8.55234 1.61484 7.41094 0.471094 6 0.471094Z" fill="black"/>
</svg>
