<svg width="10" height="10" viewBox="0 0 10 10" fill="none" xmlns="http://www.w3.org/2000/svg">
<path d="M0.45875 0.222497C0.351847 0.266892 0.266895 0.351845 0.2225 0.458747C0.200082 0.511345 0.188191 0.567825 0.1875 0.624997L0.1875 9.375C0.1875 9.49103 0.233594 9.60231 0.315641 9.68436C0.397688 9.7664 0.508968 9.8125 0.625 9.8125C0.741032 9.8125 0.852312 9.7664 0.934359 9.68436C1.01641 9.60231 1.0625 9.49103 1.0625 9.375L1.0625 1.67937L9.06438 9.68562C9.10505 9.72663 9.15343 9.75917 9.20675 9.78139C9.26006 9.8036 9.31725 9.81503 9.375 9.81503C9.43276 9.81503 9.48994 9.8036 9.54325 9.78139C9.59657 9.75917 9.64495 9.72663 9.68563 9.68562C9.72663 9.64495 9.75918 9.59656 9.78139 9.54325C9.8036 9.48993 9.81504 9.43275 9.81504 9.375C9.81504 9.31724 9.8036 9.26006 9.78139 9.20674C9.75918 9.15343 9.72663 9.10504 9.68563 9.06437L1.67937 1.0625L9.375 1.0625C9.49103 1.0625 9.60231 1.0164 9.68436 0.934356C9.76641 0.852309 9.8125 0.741028 9.8125 0.624997C9.8125 0.508964 9.76641 0.397684 9.68436 0.315637C9.60231 0.23359 9.49103 0.187497 9.375 0.187497L0.625 0.187497C0.567828 0.188189 0.511347 0.200079 0.45875 0.222497Z" fill="#44ACD5"/>
</svg>
