<svg width="10" height="10" viewBox="0 0 10 10" fill="none" xmlns="http://www.w3.org/2000/svg">
<path d="M0.45875 0.222527C0.351847 0.266923 0.266895 0.351875 0.2225 0.458777C0.200082 0.511375 0.188191 0.567856 0.1875 0.625028L0.1875 9.37503C0.1875 9.49106 0.233594 9.60234 0.315641 9.68439C0.397688 9.76643 0.508968 9.81253 0.625 9.81253C0.741032 9.81253 0.852312 9.76643 0.934359 9.68439C1.01641 9.60234 1.0625 9.49106 1.0625 9.37503L1.0625 1.6794L9.06438 9.68565C9.10505 9.72666 9.15343 9.7592 9.20675 9.78142C9.26006 9.80363 9.31725 9.81506 9.375 9.81506C9.43276 9.81506 9.48994 9.80363 9.54325 9.78142C9.59657 9.7592 9.64495 9.72666 9.68563 9.68565C9.72663 9.64498 9.75918 9.59659 9.78139 9.54328C9.8036 9.48997 9.81504 9.43278 9.81504 9.37503C9.81504 9.31727 9.8036 9.26009 9.78139 9.20677C9.75918 9.15346 9.72663 9.10507 9.68563 9.0644L1.67937 1.06253L9.375 1.06253C9.49103 1.06253 9.60231 1.01643 9.68436 0.934387C9.76641 0.852339 9.8125 0.741059 9.8125 0.625027C9.8125 0.508995 9.76641 0.397714 9.68436 0.315668C9.60231 0.23362 9.49103 0.187527 9.375 0.187527L0.625 0.187528C0.567828 0.188219 0.511347 0.200109 0.45875 0.222527Z" fill="white"/>
</svg>
