<svg width="11" height="9" viewBox="0 0 11 9" fill="none" xmlns="http://www.w3.org/2000/svg">
<path fill-rule="evenodd" clip-rule="evenodd" d="M10.4654 0.813822C10.5309 0.879886 10.5829 0.958228 10.6181 1.04437C10.6534 1.13051 10.6714 1.22276 10.671 1.31585C10.6706 1.40893 10.6518 1.50103 10.6158 1.58687C10.5798 1.67271 10.5272 1.75061 10.4611 1.81611L4.02236 8.19111C3.95591 8.25691 3.87708 8.30889 3.79044 8.34406C3.70379 8.37923 3.61104 8.3969 3.51753 8.39605C3.42402 8.39519 3.3316 8.37583 3.24561 8.33907C3.15963 8.30232 3.08177 8.2489 3.01653 8.18191L0.530278 5.63191C0.401743 5.4969 0.331609 5.31666 0.335084 5.13028C0.33856 4.94391 0.415364 4.76641 0.548843 4.63629C0.682322 4.50616 0.861715 4.4339 1.04812 4.43517C1.23453 4.43644 1.41292 4.51114 1.54461 4.64307L3.5329 6.68166L9.46378 0.809572C9.52984 0.743991 9.60818 0.692076 9.69433 0.656794C9.78047 0.621512 9.87272 0.603555 9.9658 0.603949C10.0589 0.604344 10.151 0.623083 10.2368 0.659094C10.3227 0.695106 10.3999 0.747684 10.4654 0.813822Z" fill="#114C63"/>
</svg>
